<svg width="58" height="26" viewBox="0 0 58 26" fill="none" xmlns="http://www.w3.org/2000/svg">
<path d="M10.551 26C9.85015 26 9.20923 25.8232 8.62831 25.4696C8.0537 25.1159 7.5959 24.6424 7.25493 24.0488C6.92026 23.4489 6.75293 22.7828 6.75293 22.0503L6.77187 15.9979C6.77187 15.2781 6.93605 14.6277 7.2644 14.0468C7.59275 13.4596 8.04423 12.9891 8.61884 12.6355C9.19976 12.2756 9.84383 12.0956 10.551 12.0956C11.2709 12.0956 11.9118 12.2693 12.4738 12.6166C13.0421 12.9639 13.4936 13.4343 13.8282 14.0279C14.1692 14.6151 14.3397 15.2718 14.3397 15.9979V16.8883C14.3397 16.9388 14.3144 16.964 14.2639 16.964H12.0854C12.0349 16.964 12.0097 16.9388 12.0097 16.8883V15.9979C12.0097 15.5686 11.8708 15.1992 11.5929 14.8898C11.3151 14.5804 10.9678 14.4257 10.551 14.4257C10.0901 14.4257 9.73649 14.5835 9.49023 14.8992C9.24396 15.215 9.12083 15.5812 9.12083 15.9979V22.0503C9.12083 22.5239 9.25975 22.9122 9.53758 23.2153C9.81542 23.5121 10.1532 23.6605 10.551 23.6605C10.9678 23.6605 11.3151 23.4963 11.5929 23.168C11.8708 22.8333 12.0097 22.4607 12.0097 22.0503V21.1505C12.0097 21.1 12.0349 21.0747 12.0854 21.0747H14.2829C14.3334 21.0747 14.3586 21.1 14.3586 21.1505V22.0503C14.3586 22.7765 14.1881 23.4395 13.8472 24.0393C13.4999 24.6329 13.0421 25.1096 12.4738 25.4696C11.9055 25.8232 11.2646 26 10.551 26Z" fill="black"/>
<path d="M18.0431 25.8105H15.8457C15.7952 25.8105 15.7699 25.779 15.7699 25.7158L15.7888 12.3893C15.7888 12.3387 15.8204 12.3135 15.8836 12.3135H18.0431C18.1062 12.3135 18.1378 12.3387 18.1378 12.3893L18.1189 17.6649H21.0266V12.3893C21.0266 12.3387 21.0519 12.3135 21.1024 12.3135H23.2619C23.3251 12.3135 23.3567 12.3387 23.3567 12.3893L23.3945 25.7158C23.3945 25.779 23.363 25.8105 23.2998 25.8105H21.1214C21.0582 25.8105 21.0266 25.779 21.0266 25.7158V20.0139H18.1189V25.7158C18.1189 25.779 18.0936 25.8105 18.0431 25.8105Z" fill="black"/>
<path d="M24.3228 25.7158L26.7286 12.3893C26.7412 12.3387 26.7728 12.3135 26.8233 12.3135H29.6363C29.6869 12.3135 29.7184 12.3387 29.7311 12.3893L32.0421 25.7158C32.0484 25.779 32.0232 25.8105 31.9664 25.8105H29.8163C29.7532 25.8105 29.7184 25.779 29.7121 25.7158L29.5037 24.2951H26.8612L26.6528 25.7158C26.6465 25.779 26.6149 25.8105 26.5581 25.8105H24.3985C24.348 25.8105 24.3228 25.779 24.3228 25.7158ZM28.3198 16.7746L28.2061 16.0548L28.1209 16.7746L27.2495 22.2208H29.1154L28.3198 16.7746Z" fill="black"/>
<path d="M35.3667 25.8105H33.425C33.324 25.8105 33.2734 25.7663 33.2734 25.6779L33.2545 12.465C33.2545 12.364 33.305 12.3135 33.406 12.3135H35.1583L38.4355 19.9571L38.3407 12.465C38.3407 12.364 38.3976 12.3135 38.5112 12.3135H40.434C40.5098 12.3135 40.5476 12.364 40.5476 12.465L40.5666 25.6969C40.5666 25.7726 40.535 25.8105 40.4719 25.8105H38.767L35.4046 18.6689L35.5466 25.659C35.5466 25.76 35.4866 25.8105 35.3667 25.8105Z" fill="black"/>
<path d="M45.8044 26C45.1035 26 44.472 25.8263 43.9101 25.479C43.3418 25.1317 42.884 24.6645 42.5367 24.0772C42.1957 23.49 42.0252 22.8333 42.0252 22.1071V15.9601C42.0252 15.2528 42.1989 14.6088 42.5461 14.0279C42.8871 13.4406 43.3449 12.9733 43.9195 12.6261C44.4941 12.2724 45.1224 12.0956 45.8044 12.0956C46.5179 12.0956 47.162 12.2661 47.7366 12.6071C48.3112 12.9544 48.7658 13.4185 49.1005 13.9994C49.4415 14.5804 49.612 15.2339 49.612 15.9601V16.8504C49.612 16.9009 49.5804 16.9262 49.5173 16.9262H47.3388C47.2883 16.9262 47.263 16.9009 47.263 16.8504V16.1116C47.263 15.6191 47.1241 15.2118 46.8463 14.8898C46.5684 14.5677 46.2211 14.4067 45.8044 14.4067C45.4318 14.4067 45.1003 14.5614 44.8099 14.8708C44.5194 15.1802 44.3742 15.5433 44.3742 15.9601V22.1071C44.3742 22.5302 44.5162 22.8964 44.8004 23.2058C45.0845 23.5089 45.4192 23.6605 45.8044 23.6605C46.2211 23.6605 46.5684 23.5121 46.8463 23.2153C47.1241 22.9122 47.263 22.5428 47.263 22.1071V21.1505H45.9086C45.8391 21.1505 45.8044 21.1189 45.8044 21.0558V18.8868C45.8044 18.8236 45.8391 18.7921 45.9086 18.7921H49.5362C49.5867 18.7921 49.612 18.8236 49.612 18.8868V22.1071C49.612 22.8333 49.4415 23.49 49.1005 24.0772C48.7532 24.6645 48.2954 25.1317 47.7271 25.479C47.1588 25.8263 46.5179 26 45.8044 26Z" fill="black"/>
<path d="M57.3313 25.8105H51.0611C51.0106 25.8105 50.9854 25.779 50.9854 25.7158L51.0043 12.3893C51.0043 12.3387 51.0296 12.3135 51.0801 12.3135H57.3124C57.3629 12.3135 57.3882 12.3451 57.3882 12.4082V14.5772C57.3882 14.6277 57.3629 14.653 57.3124 14.653H53.3343V17.6839H57.3124C57.3629 17.6839 57.3882 17.7091 57.3882 17.7597L57.4071 19.9571C57.4071 20.0076 57.3818 20.0329 57.3313 20.0329H53.3343V23.4237H57.3313C57.3818 23.4237 57.4071 23.4553 57.4071 23.5184V25.7348C57.4071 25.7853 57.3818 25.8105 57.3313 25.8105Z" fill="black"/>
<path d="M2.76793 8.61055C2.23871 8.61055 1.76521 8.51655 1.34741 8.32854C0.929605 8.14053 0.598847 7.85851 0.35513 7.48249C0.118377 7.09951 0 6.62252 0 6.05153V5.83218H0.866935V6.05153C0.866935 6.65734 1.0445 7.10995 1.39963 7.40938C1.75476 7.70184 2.21086 7.84807 2.76793 7.84807C3.33892 7.84807 3.77413 7.71925 4.07355 7.4616C4.37297 7.20396 4.52269 6.88017 4.52269 6.49022C4.52269 6.21865 4.45305 6.00278 4.31379 5.84263C4.18148 5.68247 3.99347 5.55365 3.74976 5.45616C3.50604 5.35171 3.22054 5.26119 2.89327 5.18459L2.35013 5.04881C1.92536 4.93739 1.54934 4.80161 1.22207 4.64145C0.894789 4.4813 0.637145 4.2724 0.449135 4.01475C0.268088 3.75015 0.177565 3.41242 0.177565 3.00159C0.177565 2.59075 0.278533 2.23562 0.48047 1.9362C0.68937 1.63677 0.978348 1.40698 1.34741 1.24683C1.72343 1.08667 2.15515 1.00659 2.64259 1.00659C3.13698 1.00659 3.57915 1.09363 3.9691 1.26772C4.36601 1.43484 4.67588 1.68552 4.89871 2.01976C5.1285 2.34703 5.24339 2.76135 5.24339 3.26271V3.7014H4.37646V3.26271C4.37646 2.90758 4.29986 2.62209 4.14667 2.40622C4.00044 2.19036 3.79502 2.0302 3.53041 1.92575C3.27277 1.8213 2.97683 1.76908 2.64259 1.76908C2.16212 1.76908 1.77565 1.87701 1.48319 2.09287C1.19073 2.30177 1.0445 2.6012 1.0445 2.99114C1.0445 3.24879 1.10717 3.45769 1.23251 3.61784C1.35785 3.778 1.53542 3.9103 1.76521 4.01475C1.995 4.11224 2.27005 4.19928 2.59036 4.27588L3.1335 4.41166C3.55826 4.50219 3.93777 4.62753 4.27201 4.78768C4.61321 4.94088 4.88478 5.15326 5.08672 5.42483C5.28865 5.68943 5.38962 6.0376 5.38962 6.46933C5.38962 6.90105 5.28169 7.27708 5.06583 7.59739C4.84996 7.9177 4.54358 8.16838 4.14667 8.34943C3.75672 8.52351 3.29714 8.61055 2.76793 8.61055Z" fill="black"/>
<path d="M8.2203 8.46432V1.94664H5.87017V1.15282H11.4478V1.94664H9.09768V8.46432H8.2203Z" fill="black"/>
<path d="M14.8909 8.61055C14.0205 8.61055 13.3241 8.35987 12.8019 7.85851C12.2866 7.35019 12.029 6.61208 12.029 5.64417V3.97297C12.029 3.00507 12.2866 2.27044 12.8019 1.76908C13.3241 1.26075 14.0205 1.00659 14.8909 1.00659C15.7683 1.00659 16.4646 1.26075 16.9799 1.76908C17.5021 2.27044 17.7633 3.00507 17.7633 3.97297V5.64417C17.7633 6.61208 17.5021 7.35019 16.9799 7.85851C16.4646 8.35987 15.7683 8.61055 14.8909 8.61055ZM14.8909 7.82718C15.5246 7.82718 16.0155 7.63917 16.3636 7.26315C16.7118 6.88017 16.8859 6.35095 16.8859 5.67551V3.94164C16.8859 3.26619 16.7118 2.74046 16.3636 2.36444C16.0155 1.98146 15.5246 1.78997 14.8909 1.78997C14.2642 1.78997 13.7768 1.98146 13.4286 2.36444C13.0804 2.74046 12.9063 3.26619 12.9063 3.94164V5.67551C12.9063 6.35095 13.0804 6.88017 13.4286 7.26315C13.7768 7.63917 14.2642 7.82718 14.8909 7.82718Z" fill="black"/>
<path d="M19.225 8.46432V1.15282H22.1809C22.6336 1.15282 23.0305 1.2329 23.3717 1.39306C23.7198 1.54625 23.9914 1.76908 24.1864 2.06154C24.3814 2.34703 24.4788 2.69172 24.4788 3.09559V3.21049C24.4788 3.69096 24.3639 4.07046 24.1342 4.34899C23.9044 4.62753 23.6328 4.81554 23.3194 4.91302V5.05925C23.5701 5.06622 23.7755 5.14978 23.9357 5.30993C24.1028 5.46313 24.1864 5.6964 24.1864 6.00975V8.46432H23.3194V6.1142C23.3194 5.9053 23.2603 5.74514 23.1419 5.63373C23.0305 5.52231 22.8599 5.46661 22.6301 5.46661H20.1024V8.46432H19.225ZM20.1024 4.67279H22.0974C22.5778 4.67279 22.9469 4.55789 23.2045 4.3281C23.4692 4.09135 23.6015 3.76407 23.6015 3.34627V3.27316C23.6015 2.85536 23.4726 2.53156 23.215 2.30177C22.9573 2.06502 22.5848 1.94664 22.0974 1.94664H20.1024V4.67279Z" fill="black"/>
<path d="M25.8143 8.46432V1.15282H26.6917V8.46432H25.8143Z" fill="black"/>
<path d="M28.3644 8.46432V1.15282H32.8662V1.94664H29.2418V4.39077H32.5737V5.18459H29.2418V7.6705H32.9184V8.46432H28.3644Z" fill="black"/>
<path d="M36.6836 8.61055C36.1544 8.61055 35.6809 8.51655 35.2631 8.32854C34.8453 8.14053 34.5145 7.85851 34.2708 7.48249C34.034 7.09951 33.9156 6.62252 33.9156 6.05153V5.83218H34.7826V6.05153C34.7826 6.65734 34.9602 7.10995 35.3153 7.40938C35.6704 7.70184 36.1265 7.84807 36.6836 7.84807C37.2546 7.84807 37.6898 7.71925 37.9892 7.4616C38.2886 7.20396 38.4383 6.88017 38.4383 6.49022C38.4383 6.21865 38.3687 6.00278 38.2294 5.84263C38.0971 5.68247 37.9091 5.55365 37.6654 5.45616C37.4217 5.35171 37.1362 5.26119 36.8089 5.18459L36.2658 5.04881C35.841 4.93739 35.465 4.80161 35.1377 4.64145C34.8104 4.4813 34.5528 4.2724 34.3648 4.01475C34.1837 3.75015 34.0932 3.41242 34.0932 3.00159C34.0932 2.59075 34.1942 2.23562 34.3961 1.9362C34.605 1.63677 34.894 1.40698 35.2631 1.24683C35.6391 1.08667 36.0708 1.00659 36.5582 1.00659C37.0526 1.00659 37.4948 1.09363 37.8848 1.26772C38.2817 1.43484 38.5915 1.68552 38.8144 2.01976C39.0441 2.34703 39.159 2.76135 39.159 3.26271V3.7014H38.2921V3.26271C38.2921 2.90758 38.2155 2.62209 38.0623 2.40622C37.9161 2.19036 37.7107 2.0302 37.4461 1.92575C37.1884 1.8213 36.8925 1.76908 36.5582 1.76908C36.0778 1.76908 35.6913 1.87701 35.3988 2.09287C35.1064 2.30177 34.9601 2.6012 34.9601 2.99114C34.9601 3.24879 35.0228 3.45769 35.1482 3.61784C35.2735 3.778 35.4511 3.9103 35.6809 4.01475C35.9106 4.11224 36.1857 4.19928 36.506 4.27588L37.0492 4.41166C37.4739 4.50219 37.8534 4.62753 38.1877 4.78768C38.5289 4.94088 38.8004 5.15326 39.0024 5.42483C39.2043 5.68943 39.3053 6.0376 39.3053 6.46933C39.3053 6.90105 39.1973 7.27708 38.9815 7.59739C38.7656 7.9177 38.4592 8.16838 38.0623 8.34943C37.6724 8.52351 37.2128 8.61055 36.6836 8.61055Z" fill="black"/>
<path d="M47.0354 5.09828C47.0354 5.52814 46.9626 5.95801 46.8169 6.38787C46.6711 6.81774 46.4599 7.19478 46.183 7.519C45.9025 7.85415 45.5637 8.12373 45.1666 8.32773C44.7732 8.52809 44.316 8.62827 43.7951 8.62827C43.1903 8.62827 42.6985 8.43338 42.3197 8.04358C41.9444 7.65379 41.7568 7.12921 41.7568 6.46984C41.7568 5.98533 41.837 5.53361 41.9973 5.11467C42.1576 4.69573 42.3725 4.3278 42.6421 4.01086C42.9153 3.69393 43.2523 3.43892 43.653 3.24585C44.0573 3.04913 44.4945 2.95077 44.9644 2.95077C45.6129 2.95077 46.1192 3.14931 46.4835 3.54639C46.8515 3.93983 47.0354 4.45712 47.0354 5.09828ZM45.9207 4.89063C45.9207 4.37333 45.8278 3.98536 45.642 3.72671C45.4599 3.46807 45.1958 3.33874 44.8497 3.33874C44.5473 3.33874 44.2613 3.43164 43.9918 3.61743C43.7258 3.80322 43.4963 4.10558 43.3033 4.52452C43.1539 4.84145 43.0446 5.19481 42.9754 5.58461C42.9062 5.97076 42.8716 6.32776 42.8716 6.65563C42.8716 7.17657 42.9608 7.57182 43.1393 7.8414C43.3215 8.10733 43.5947 8.2403 43.959 8.2403C44.2832 8.2403 44.571 8.1383 44.8224 7.93429C45.0737 7.73029 45.2777 7.47164 45.4344 7.15835C45.591 6.85234 45.7112 6.50262 45.795 6.10919C45.8788 5.71211 45.9207 5.30592 45.9207 4.89063Z" fill="#FC714A"/>
<path d="M50.1064 3.62289L49.1447 8.13648C48.9735 8.94521 48.6128 9.6064 48.0627 10.1201C47.5127 10.6337 46.9462 10.8905 46.3633 10.8905C46.0427 10.8905 45.8078 10.8286 45.6584 10.7047C45.5054 10.5845 45.4289 10.4315 45.4289 10.2457C45.4289 10.0891 45.4763 9.95065 45.571 9.83044C45.6657 9.71022 45.8023 9.65011 45.9808 9.65011C46.0937 9.65011 46.1939 9.67561 46.2814 9.72661C46.3651 9.77762 46.4398 9.84137 46.5054 9.91787C46.5564 9.9798 46.6147 10.0636 46.6803 10.1692C46.7422 10.2749 46.7968 10.3659 46.8442 10.4424C47.1247 10.4206 47.3633 10.2312 47.56 9.87415C47.7604 9.51715 47.9334 9.00714 48.0791 8.34412L49.0846 3.62289H48.019L48.1338 3.12563H49.1884L49.2649 2.75405C49.3523 2.33147 49.4908 1.95079 49.6802 1.612C49.8696 1.2732 50.0846 0.985412 50.325 0.748621C50.5618 0.515474 50.8295 0.333328 51.1283 0.202182C51.4306 0.0673941 51.7202 0 51.9971 0C52.3177 0 52.5527 0.0619298 52.702 0.185789C52.855 0.306006 52.9315 0.459009 52.9315 0.644798C52.9315 0.801444 52.886 0.939875 52.7949 1.06009C52.7075 1.18031 52.569 1.24042 52.3796 1.24042C52.2667 1.24042 52.1683 1.21674 52.0845 1.16938C52.0007 1.11838 51.9261 1.05281 51.8605 0.972661C51.7876 0.881588 51.7293 0.795979 51.6856 0.715835C51.6419 0.635691 51.5873 0.546439 51.5217 0.44808C51.2703 0.459009 51.0481 0.624762 50.855 0.94534C50.662 1.26592 50.4871 1.79961 50.3305 2.54641L50.2102 3.12563H51.5818L51.4671 3.62289H50.1064Z" fill="#FC714A"/>
</svg>
